<svg xmlns="http://www.w3.org/2000/svg" viewBox="0 0 120.79 56.33"><g id="レイヤー_2" data-name="レイヤー 2"><g id="レイヤー_1-2" data-name="レイヤー 1"><g id="_32c7N1" data-name="32c7N1"><path d="M76,23.61a6.45,6.45,0,0,0-1.2-.46,4.64,4.64,0,0,1-4.15-3.74c-1-3.66-3.5-5.17-7.21-5.94C42.72,9.19,22,4.65,1.33.2.94.11.55.07.14,0c-.38,1.08,0,1.54,1,1.88q25.41,8.87,50.79,17.79,10,3.49,20,7a1.28,1.28,0,0,0,1.73-.45C74.33,25.37,75.14,24.59,76,23.61Zm-21.45-5a2.65,2.65,0,1,1,3.58-3.92,2.71,2.71,0,0,1,.19,3.69A2.67,2.67,0,0,1,54.57,18.58Z"/><path d="M72.64,28.07c2.17.79,3.93,1.39,5.67,2.07,2.67,1,5.38,2,8,3.23,4.33,2.05,6.34,5.61,6.64,10.37.45,7,6.43,11.47,11.16,12.34a14.09,14.09,0,0,0,16-9.41c3.19-9.9-5.47-19.94-15.69-18A24.45,24.45,0,0,1,91.71,27.6c-4.53-1.53-9.12-2.91-13.69-4.32a1.37,1.37,0,0,0-1.15.17C75.49,24.88,74.18,26.37,72.64,28.07Zm42.27,21.41c-4.07,4.32-10.28,5.15-15,1.12a10.71,10.71,0,1,1,13.83-16.36A10.77,10.77,0,0,1,114.91,49.48Z"/></g></g></g></svg>