<svg xmlns="http://www.w3.org/2000/svg" viewBox="0 0 118.1 62.66"><g id="レイヤー_2" data-name="レイヤー 2"><g id="レイヤー_1-2" data-name="レイヤー 1"><path d="M74.51,34.53a5.74,5.74,0,0,1-1.17.54,4.65,4.65,0,0,0-3.92,4c-.81,3.71-3.18,5.37-6.84,6.35-20.44,5.53-40.82,11.3-61.22,17-.38.1-.77.17-1.17.26-.45-1-.08-1.53.88-1.93Q25.9,50.35,50.7,39.92q9.78-4.1,19.56-8.22a1.25,1.25,0,0,1,1.74.35C72.72,32.89,73.57,33.61,74.51,34.53ZM53.4,40.84a2.66,2.66,0,1,0,3.81,3.7,2.7,2.7,0,0,0,0-3.69A2.67,2.67,0,0,0,53.4,40.84Z"/><path d="M70.87,30.29c2.11-.92,3.84-1.62,5.53-2.4,2.6-1.2,5.25-2.34,7.76-3.71,4.2-2.3,6-6,6-10.76,0-7,5.73-11.83,10.4-13a14.09,14.09,0,0,1,16.58,8.43c3.78,9.69-4.27,20.23-14.59,18.91a24.48,24.48,0,0,0-12.63,1.83C85.5,31.42,81,33.07,76.52,34.75a1.38,1.38,0,0,1-1.15-.11C73.91,33.3,72.51,31.89,70.87,30.29Zm40.9-23.92c-4.32-4.06-10.56-4.51-15.07-.21a10.71,10.71,0,1,0,15.07.21Z"/></g></g></svg>