<svg xmlns="http://www.w3.org/2000/svg" viewBox="0 0 120.79 82.13"><g id="レイヤー_2" data-name="レイヤー 2"><g id="レイヤー_1-2" data-name="レイヤー 1"><path d="M75.75,34.53a5.75,5.75,0,0,1-1.18.54,4.65,4.65,0,0,0-3.91,4c-.81,3.71-3.18,5.37-6.84,6.35C43.37,50.94,23,56.71,2.59,62.4c-.37.1-.76.17-1.17.26-.44-1-.07-1.53.89-1.93Q27.14,50.35,51.94,39.92q9.78-4.1,19.55-8.22a1.26,1.26,0,0,1,1.75.35C74,32.89,74.81,33.61,75.75,34.53ZM54.64,40.84a2.65,2.65,0,1,0,3.8,3.7,2.65,2.65,0,0,0-3.8-3.7Z"/><path d="M72.1,30.29c2.12-.92,3.85-1.62,5.54-2.4,2.6-1.2,5.25-2.34,7.76-3.71,4.2-2.3,6-6,6-10.76,0-7,5.73-11.83,10.4-13a14.09,14.09,0,0,1,16.57,8.43c3.79,9.69-4.26,20.23-14.58,18.91a24.48,24.48,0,0,0-12.63,1.83c-4.43,1.81-8.93,3.46-13.41,5.14a1.38,1.38,0,0,1-1.15-.11C75.15,33.3,73.75,31.89,72.1,30.29ZM113,6.37c-4.32-4.06-10.57-4.51-15.07-.21a10.71,10.71,0,1,0,14.79,15.5A10.77,10.77,0,0,0,113,6.37Z"/><path d="M76,49.4a7.28,7.28,0,0,0-1.2-.46,4.64,4.64,0,0,1-4.15-3.74c-1-3.66-3.5-5.17-7.21-5.94C42.72,35,22,30.44,1.33,26c-.39-.08-.78-.13-1.19-.2-.38,1.08,0,1.54,1,1.88q25.41,8.86,50.79,17.79c6.68,2.34,13.35,4.66,20,7A1.28,1.28,0,0,0,73.67,52C74.33,51.16,75.14,50.38,76,49.4Zm-21.45-5a2.65,2.65,0,1,1,3.58-3.92,2.65,2.65,0,0,1-3.58,3.92Z"/><path d="M72.64,53.86c2.17.79,3.93,1.39,5.67,2.07,2.67,1,5.38,2,8,3.23,4.33,2.05,6.34,5.61,6.64,10.38.45,7,6.43,11.46,11.16,12.34a14.11,14.11,0,0,0,16-9.42c3.19-9.9-5.47-19.94-15.69-18a24.45,24.45,0,0,1-12.72-1.08c-4.53-1.53-9.12-2.91-13.69-4.32a1.37,1.37,0,0,0-1.15.17C75.49,50.67,74.18,52.16,72.64,53.86Zm42.27,21.42c-4.07,4.32-10.28,5.14-15,1.12a10.71,10.71,0,1,1,15-1.12Z"/></g></g></svg>