<svg xmlns="http://www.w3.org/2000/svg" viewBox="0 0 1071.45 136.62"><defs><style>.cls-1,.cls-5{fill:none;}.cls-1{stroke:#020511;stroke-miterlimit:10;stroke-width:4px;}.cls-2{isolation:isolate;font-size:38.44px;fill:#020511;font-family:Quasimoda-SemiBold, Quasimoda;font-weight:600;letter-spacing:3em;}.cls-3{letter-spacing:3em;}.cls-4{letter-spacing:3em;}</style></defs><g id="レイヤー_2" data-name="レイヤー 2"><g id="レイヤー_1-2" data-name="レイヤー 1"><line class="cls-1" x1="1.37" y1="64.78" x2="67.63" y2="2.67"/><line class="cls-1" x1="130.84" y1="64.34" x2="64.83" y2="2.48"/><line class="cls-1" x1="129.45" y1="63.24" x2="192.45" y2="2.24"/><line class="cls-1" x1="256.45" y1="67.24" x2="190.34" y2="1.42"/><text class="cls-2" transform="translate(48.79 114.9) scale(0.98 1)">kiri<tspan class="cls-3" x="517.31" y="0">t</tspan><tspan class="cls-4" x="646.51" y="0">ori</tspan></text><rect class="cls-5" x="2.45" y="11.24" width="1066" height="125.38"/><polygon class="cls-5" points="5.45 11.24 1071.45 11.24 1068.45 136.62 2.45 136.62 5.45 11.24"/><line class="cls-1" x1="253.9" y1="66.93" x2="320.16" y2="4.83"/><line class="cls-1" x1="383.37" y1="66.5" x2="317.36" y2="4.64"/><line class="cls-1" x1="381.98" y1="65.39" x2="444.98" y2="4.39"/><line class="cls-1" x1="508.98" y1="69.39" x2="442.87" y2="3.57"/><line class="cls-1" x1="507.08" y1="68.59" x2="573.34" y2="6.49"/><line class="cls-1" x1="636.55" y1="68.16" x2="570.53" y2="6.29"/><line class="cls-1" x1="635.16" y1="67.05" x2="698.16" y2="6.05"/><line class="cls-1" x1="762.16" y1="71.05" x2="696.05" y2="5.23"/><line class="cls-1" x1="759.36" y1="70.67" x2="825.62" y2="8.56"/><line class="cls-1" x1="888.84" y1="70.23" x2="822.82" y2="8.37"/><line class="cls-1" x1="887.44" y1="69.12" x2="950.44" y2="8.12"/><line class="cls-1" x1="1014.44" y1="73.12" x2="948.33" y2="7.31"/></g></g></svg>